<svg xmlns="http://www.w3.org/2000/svg" viewBox="0 0 750 500">
  <rect width="750" height="500" fill="#c60b1e"/>
  <rect width="750" height="250" y="125" fill="#ffc400"/>
  <path d="M298.77 249.67h152.46M395.59 173.57c-24.68 0-44.59 25.27-44.59 56.53 0 31.26 19.92 56.53 44.59 56.53 24.68 0 44.59-25.27 44.59-56.53 0-31.26-19.9-56.53-44.59-56.53z" fill="none" stroke="#000" stroke-width="11.75" stroke-linecap="round" stroke-linejoin="round"/>
  <path d="M331.54 268.79h-19.43v18.75h19.43zm19.63-41.61h-19.43v18.75h19.43zm-19.63-41.61h-19.43v18.75h19.43zm107.79 83.22h-19.43v18.75h19.43zm19.63-41.61h-19.43v18.75h19.43zm-19.63-41.61h-19.43v18.75h19.43z" fill="#c60b1e"/>
  <path d="M299.92 306.85c28.68-26.11 78.29-26.28 111.83-.46.73.56 1.31-25.99 1.31-25.99-34.31-25.2-79.81-25.62-114.46-.39z" fill="#c60b1e"/>
  <path d="M438.15 184.61c-1.44-.15-42.66-2.03-42.66-2.03v33.48s39.42 1.36 42.66 1.64c4.03.35 7.1 3.94 7.1 8.05 0 4.11-3.11 7.53-7.1 7.88-40.85 3.53-84.8 1.71-126.9-5.11-4.87-.79-9.33-5.46-9.33-10.01 0-5.67 6.13-9.38 9.33-10.13 42.78-10.03 86.92-10.58 126.9-5.48 3.88.49 7.1 4.06 7.1 8.17 0 4.11-3.12 7.53-7.1 7.88-37.45 3.2-78.15 3.32-117.57.46" fill="none" stroke="#000" stroke-width="1.59" stroke-linecap="round"/>
  <path d="M366.28 207.36c0-4.45 3.35-8.05 7.49-8.05 4.13 0 7.49 3.6 7.49 8.05 0 4.45-3.35 8.05-7.49 8.05-4.13 0-7.49-3.6-7.49-8.05zm55.6 9.94c0-4.45 3.35-8.05 7.49-8.05 4.13 0 7.49 3.6 7.49 8.05 0 4.45-3.35 8.05-7.49 8.05-4.13 0-7.49-3.6-7.49-8.05zm-119.29 0c0-4.45 3.35-8.05 7.49-8.05 4.13 0 7.49 3.6 7.49 8.05 0 4.45-3.35 8.05-7.49 8.05-4.13 0-7.49-3.6-7.49-8.05zm178.22 36.12c0-4.45 3.51-8.06 7.85-8.06 4.33 0 7.85 3.61 7.85 8.06 0 4.45-3.51 8.06-7.85 8.06-4.33 0-7.85-3.61-7.85-8.06zm-18.56 34.59c0-4.45 3.51-8.06 7.85-8.06 4.33 0 7.85 3.61 7.85 8.06 0 4.45-3.51 8.06-7.85 8.06-4.33 0-7.85-3.61-7.85-8.06zm-200.08-34.59c0-4.45 3.51-8.06 7.85-8.06 4.33 0 7.85 3.61 7.85 8.06 0 4.45-3.51 8.06-7.85 8.06-4.33 0-7.85-3.61-7.85-8.06zm18.56 34.59c0-4.45 3.51-8.06 7.85-8.06 4.33 0 7.85 3.61 7.85 8.06 0 4.45-3.51 8.06-7.85 8.06-4.33 0-7.85-3.61-7.85-8.06z" fill="#f1bf00"/>
  <path d="M335.03 255.78c3.36-16.92 38.95-22.42 50.99 0-3.55 17.31-37.11 17.31-50.99 0zm60.54 0c3.36-16.92 38.95-22.42 50.99 0-3.55 17.31-37.11 17.31-50.99 0zm-120.4 0c3.36-16.92 38.95-22.42 50.99 0-3.55 17.31-37.11 17.31-50.99 0z" fill="#c60b1e"/>
</svg> 