<svg xmlns="http://www.w3.org/2000/svg" viewBox="0 0 600 400">
  <rect width="600" height="400" fill="#f00"/>
  <rect width="240" height="400" fill="#060"/>
  <g fill="#ff0" fill-rule="evenodd" stroke="#000" stroke-width="0.573" stroke-linecap="round" stroke-linejoin="round">
    <path d="M318.733 201.685c0 27.972-22.63 50.91-50.51 50.91-27.88 0-50.51-22.938-50.51-50.91 0-27.97 22.63-50.91 50.51-50.91 27.88 0 50.51 22.94 50.51 50.91z"/>
    <path d="M268.223 132.296c-13.388 0-26.023 3.187-37.148 8.86l.068 121.054c11.114 5.655 23.73 8.834 37.08 8.834 13.384 0 26.02-3.187 37.147-8.86l-.07-121.054c-11.116-5.654-23.728-8.834-37.076-8.834" stroke-width=".716"/>
    <path d="M317.875 259.043c-49.02-26.15-99.443 15.424-99.443 15.424l6.29-111.52c9.23-42.666 87.62-46.868 87.62-46.868 3.248 36.16 5.532 142.964 5.532 142.964z" stroke-width=".716"/>
    <path d="M225.225 175.958c5.322-11.44 15.513-17.757 30.39-21.7 28.37-7.485 42.13 14.818 61.045 11.84 3.844-11.118-20.932-22.334-22.992-24.26-4.97-4.537-8.785-8.937-9.777-17.666 3.304 1.57 4.93 2.346 8.35 3.292 10.474-7.84 12.642-14.256 12.235-24.982-20.836 5.852-33.325 14.85-49.44 27.222-15.067 11.82-30.272 31.932-29.81 46.255z" stroke-width=".716"/>
    <path d="M238.04 200.45c9.078-.504 14.826-6.757 20.087-14.495 10.342-15.2-.86-31.7 7.15-44.22 9.324-1.715 10.397 17.625 12.376 20.653 4.537 6.348 10.503 10.62 19.426 11.304-.58-3.54-1.208-5.097-1.788-8.582 11.177 3.79 17.738.858 25.552 6.053-12.908-19.11-29.484-25.102-50.162-35.732-19.475-9.953-47.225-9.865-59.178.067 11.962 12.54 13.55 21.683 15.64 32.82 2.314 12.308 2.78 27.312 10.897 32.13z" stroke-width=".716"/>
    <path d="M241.47 188.096c12.138 13.078 27.12 13.066 35.374-1.972.576 11.97 6.29 17.678 17.305 17.678-32.92 37.53-52.678-15.706-52.678-15.706zm71.062-54.36l-2.16 3.63-3.938-1.17.722 4.042-3.63 2.16 4.042.722 1.17 3.94 2.16-3.63 3.94 1.17-.722-4.042 3.63-2.16-4.043-.722-1.17-3.938zm-17.954 17.27l-2.16 3.63-3.938-1.17.722 4.042-3.63 2.16 4.042.722 1.17 3.94 2.16-3.63 3.94 1.17-.722-4.042 3.63-2.16-4.043-.722-1.17-3.94zm-59.88-10.36l-2.16 3.63-3.938-1.17.722 4.042-3.63 2.16 4.042.722 1.17 3.94 2.16-3.63 3.94 1.17-.722-4.042 3.63-2.16-4.043-.722-1.17-3.94zm25.466-15x.2l-2.16 3.63-3.94-1.17.723 4.042-3.63 2.16 4.043.722 1.17 3.94 2.16-3.63 3.94 1.17-.723-4.042 3.63-2.16-4.042-.722-1.17-3.94zm18.456 48.2l-2.16 3.63-3.94-1.17.723 4.043-3.63 2.16 4.042.722 1.17 3.94 2.16-3.63 3.94 1.17-.723-4.043 3.63-2.16-4.042-.722-1.17-3.94z" stroke-width=".716"/>
  </g>
</svg> 