<svg xmlns="http://www.w3.org/2000/svg" xmlns:xlink="http://www.w3.org/1999/xlink" width="500" zoomAndPan="magnify" viewBox="0 0 375 374.999991" height="500" preserveAspectRatio="xMidYMid meet" version="1.0"><defs><g/></defs><g fill="#ffffff" fill-opacity="1"><g transform="translate(-3.496626, 293.453846)"><g><path d="M 126.875 -186.21875 C 160.957031 -186.21875 184.675781 -180.179688 198.03125 -168.109375 C 211.382812 -156.035156 218.0625 -139.039062 218.0625 -117.125 C 218.0625 -102.050781 215.40625 -89.25 210.09375 -78.71875 C 204.789062 -68.1875 195.457031 -59.96875 182.09375 -54.0625 C 168.738281 -48.15625 150.332031 -45.203125 126.875 -45.203125 L 73.453125 -45.203125 L 73.453125 0 L 10.28125 0 C 11.644531 -33.21875 12.328125 -64.296875 12.328125 -93.234375 C 12.328125 -122.171875 11.644531 -153.25 10.28125 -186.46875 L 73.453125 -186.46875 L 73.453125 -186.21875 Z M 108.90625 -94.78125 C 123.113281 -94.78125 133.769531 -95.332031 140.875 -96.4375 C 147.976562 -97.550781 152.941406 -99.5625 155.765625 -102.46875 C 158.597656 -105.382812 160.015625 -109.671875 160.015625 -115.328125 C 160.015625 -120.972656 158.6875 -125.207031 156.03125 -128.03125 C 153.375 -130.863281 148.492188 -132.789062 141.390625 -133.8125 C 134.285156 -134.84375 123.457031 -135.359375 108.90625 -135.359375 L 73.453125 -135.359375 L 73.453125 -94.78125 Z M 108.90625 -94.78125 "/></g></g></g><g fill="#ffffff" fill-opacity="1"><g transform="translate(173.455806, 293.453846)"><g><path d="M 72.9375 -51.875 C 122.59375 -52.21875 163.691406 -53.078125 196.234375 -54.453125 C 194.003906 -45.722656 192.628906 -37.332031 192.109375 -29.28125 C 191.597656 -21.226562 191.34375 -11.46875 191.34375 0 L 10.28125 0 C 11.644531 -33.21875 12.328125 -64.296875 12.328125 -93.234375 C 12.328125 -122.171875 11.644531 -153.25 10.28125 -186.46875 L 72.9375 -186.46875 Z M 72.9375 -51.875 "/></g></g></g></svg>